HIERARCHY
ROOT Hips
{
	OFFSET 0.00000 0.00000 0.00000
	CHANNELS 6 Xposition Yposition Zposition Zrotation Yrotation Xrotation 
	JOINT LHipJoint
	{
		OFFSET 0 0 0
		CHANNELS 3 Zrotation Yrotation Xrotation
		JOINT LeftUpLeg
		{
			OFFSET 1.73240 -1.89999 0.57994
			CHANNELS 3 Zrotation Yrotation Xrotation
			JOINT LeftLeg
			{
				OFFSET 2.43106 -6.67930 0.00000
				CHANNELS 3 Zrotation Yrotation Xrotation
				JOINT LeftFoot
				{
					OFFSET 2.78854 -7.66147 0.00000
					CHANNELS 3 Zrotation Yrotation Xrotation
					JOINT LeftToeBase
					{
						OFFSET 0.17314 -0.47571 2.01064
						CHANNELS 3 Zrotation Yrotation Xrotation
						End Site
						{
							OFFSET 0.00000 -0.00000 1.04147
						}
					}
				}
			}
		}
	}
	JOINT RHipJoint
	{
		OFFSET 0 0 0
		CHANNELS 3 Zrotation Yrotation Xrotation
		JOINT RightUpLeg
		{
			OFFSET -1.57078 -1.89998 0.57994
			CHANNELS 3 Zrotation Yrotation Xrotation
			JOINT RightLeg
			{
				OFFSET -2.50166 -6.87326 0.00000
				CHANNELS 3 Zrotation Yrotation Xrotation
				JOINT RightFoot
				{
					OFFSET -2.77304 -7.61886 0.00000
					CHANNELS 3 Zrotation Yrotation Xrotation
					JOINT RightToeBase
					{
						OFFSET -0.23513 -0.64602 2.11039
						CHANNELS 3 Zrotation Yrotation Xrotation
						End Site
						{
							OFFSET -0.00000 -0.00000 1.10597
						}
					}
				}
			}
		}
	}
	JOINT LowerBack
	{
		OFFSET 0 0 0
		CHANNELS 3 Zrotation Yrotation Xrotation
		JOINT Spine
		{
			OFFSET -0.00908 2.00015 -0.35323
			CHANNELS 3 Zrotation Yrotation Xrotation
			JOINT Spine1
			{
				OFFSET 0.05647 2.02258 0.04270
				CHANNELS 3 Zrotation Yrotation Xrotation
				JOINT Neck
				{
					OFFSET 0 0 0
					CHANNELS 3 Zrotation Yrotation Xrotation
					JOINT Neck1
					{
						OFFSET -0.02074 1.73711 0.13117
						CHANNELS 3 Zrotation Yrotation Xrotation
						JOINT Head
						{
							OFFSET -0.02359 1.73615 -0.24320
							CHANNELS 3 Zrotation Yrotation Xrotation
							End Site
							{
								OFFSET -0.00579 1.75982 -0.09688
							}
						}
					}
				}
				JOINT LeftShoulder
				{
					OFFSET 0 0 0
					CHANNELS 3 Zrotation Yrotation Xrotation
					JOINT LeftArm
					{
						OFFSET 3.20537 1.11432 -0.27680
						CHANNELS 3 Zrotation Yrotation Xrotation
						JOINT LeftForeArm
						{
							OFFSET 5.05923 -0.00000 -0.00000
							CHANNELS 3 Zrotation Yrotation Xrotation
							JOINT LeftHand
							{
								OFFSET 3.51996 -0.00000 0.00000
								CHANNELS 3 Zrotation Yrotation Xrotation
								JOINT LeftFingerBase
								{
									OFFSET 0 0 0
									CHANNELS 3 Zrotation Yrotation Xrotation
									JOINT LeftHandIndex1
									{
										OFFSET 0.65238 -0.00000 0.00000
										CHANNELS 3 Zrotation Yrotation Xrotation
										End Site
										{
											OFFSET 0.52596 -0.00000 0.00000
										}
									}
								}
								JOINT LThumb
								{
									OFFSET 0 0 0
									CHANNELS 3 Zrotation Yrotation Xrotation
									End Site
									{
										OFFSET 0.53399 -0.00000 0.53399
									}
								}
							}
						}
					}
				}
				JOINT RightShoulder
				{
					OFFSET 0 0 0
					CHANNELS 3 Zrotation Yrotation Xrotation
					JOINT RightArm
					{
						OFFSET -2.96983 1.42602 -0.37449
						CHANNELS 3 Zrotation Yrotation Xrotation
						JOINT RightForeArm
						{
							OFFSET -5.40867 -0.00000 0.00000
							CHANNELS 3 Zrotation Yrotation Xrotation
							JOINT RightHand
							{
								OFFSET -3.12964 -0.00000 0.00000
								CHANNELS 3 Zrotation Yrotation Xrotation
								JOINT RightFingerBase
								{
									OFFSET 0 0 0
									CHANNELS 3 Zrotation Yrotation Xrotation
									JOINT RightHandIndex1
									{
										OFFSET -0.83271 -0.00000 0.00000
										CHANNELS 3 Zrotation Yrotation Xrotation
										End Site
										{
											OFFSET -0.67135 -0.00000 0.00000
										}
									}
								}
								JOINT RThumb
								{
									OFFSET 0 0 0
									CHANNELS 3 Zrotation Yrotation Xrotation
									End Site
									{
										OFFSET -0.68160 -0.00000 0.68160
									}
								}
							}
						}
					}
				}
			}
		}
	}
}
MOTION
Frames: 12
Frame Time: .0083333
0.7345 17.8663 13.4323 -6.7042 -3.3533 -4.7895 0.0000 0.0000 0.0000 -12.0607 -14.2202 -20.1619 1.5904 7.9551 22.5778 0.2073 4.5255 -11.4695 0.9654 -6.2559 -17.5288 0.0000 0.0000 0.0000 33.5383 -0.1494 19.0932 -1.1918 -6.9275 19.5007 -0.4406 -1.6693 -13.2573 -0.0184 0.8766 -2.4092 5.9879 0.7565 13.1929 3.4412 2.2270 -0.6158 -0.1462 0.9062 -8.0053 -2.5647 -1.2312 -11.0719 -0.0675 -1.1535 28.6564 0.2725 -0.8066 11.0972 0.0000 -0.0000 0.0000 -91.0407 11.7437 25.1691 22.6078 -33.6572 -6.9197 -0.0000 0.0000 -5.5954 19.7465 48.3361 15.0118 -7.1250 0.0000 -0.0000 -44.1978 76.6958 -34.0652 0.0000 -0.0000 0.0000 82.3505 1.0584 20.0329 -19.2280 29.7009 -5.1433 0.0000 -0.0000 -1.0765 -13.9125 8.4946 -2.0956 7.1250 -0.0000 -0.0000 9.3507 -21.2787 5.3907
0.7596 17.8794 13.6321 -6.2361 -3.5544 -4.7367 0.0000 0.0000 0.0000 -12.6731 -14.5568 -19.6417 1.6134 8.0096 22.7433 0.1076 5.3380 -10.3205 0.9833 -6.3119 -17.6920 0.0000 0.0000 0.0000 32.9420 0.0277 18.9681 -1.3578 -7.3759 20.8340 -0.3875 -1.6846 -12.4935 -0.0388 1.2709 -3.4944 5.6502 0.8705 12.9937 3.2741 2.3046 -0.7584 -0.1472 0.9517 -8.0470 -2.4937 -1.2873 -11.0053 -0.1351 -1.2330 28.9441 0.2252 -0.8453 11.1941 0.0000 0.0000 0.0000 -91.0128 11.9771 25.0996 22.3366 -33.3553 -6.7700 -0.0000 0.0000 -5.5548 19.8523 48.4178 15.1133 -7.1250 0.0000 -0.0000 -44.3873 76.7870 -34.2979 0.0000 0.0000 0.0000 82.5115 0.5657 19.6965 -19.1432 29.5962 -5.1014 0.0000 -0.0000 -0.8159 -13.9430 8.8549 -2.1886 7.1250 -0.0000 -0.0000 9.3155 -20.9116 5.4482
0.7833 17.8924 13.8405 -5.5626 -3.7012 -4.7229 0.0000 0.0000 0.0000 -13.6268 -14.4125 -19.1589 1.6161 8.0159 22.7625 0.0411 5.4729 -8.9473 0.7801 -5.6390 -15.7404 0.0000 0.0000 0.0000 32.0884 0.2167 18.6706 -1.5806 -7.9317 22.5069 -0.3314 -1.6788 -11.6183 -0.0333 1.1778 -3.2381 5.0744 0.9820 12.6896 3.0833 2.3324 -0.8826 -0.0282 0.9851 -8.0183 -2.4281 -1.2489 -10.7246 -0.1999 -1.1821 29.1338 0.1980 -0.8243 11.2086 -0.0000 -0.0000 0.0000 -91.0307 12.1720 24.9169 22.0186 -32.9980 -6.5960 -0.0000 0.0000 -5.4240 19.7508 48.6241 15.0791 -7.1250 0.0000 -0.0000 -45.2182 76.8680 -35.0548 -0.0000 -0.0000 0.0000 82.6144 0.2544 19.3170 -18.7522 29.1096 -4.9097 0.0000 -0.0000 -0.5799 -13.9652 9.1606 -2.2672 7.1250 -0.0000 -0.0000 9.2889 -20.6003 5.4983
0.7988 17.9004 14.0225 -4.9730 -3.7700 -4.9344 0.0000 0.0000 0.0000 -14.4945 -14.0034 -18.6629 1.6273 8.0423 22.8426 -0.0169 5.4798 -7.2831 0.5869 -4.9052 -13.6383 0.0000 0.0000 0.0000 31.4970 0.5193 18.2435 -1.8782 -8.6076 24.5755 -0.2636 -1.9649 -10.6232 -0.0137 0.7557 -2.0767 4.4785 1.0676 12.8294 2.9332 2.3566 -0.9439 0.1379 1.0153 -8.1784 -2.4844 -1.2161 -10.3751 -0.0712 -1.1700 29.2762 0.2581 -0.8103 11.1938 -0.0000 0.0000 0.0000 -91.0827 12.3468 24.6540 21.8253 -32.7790 -6.4910 -0.0000 0.0000 -5.2990 19.5606 48.8370 14.9755 -7.1250 0.0000 -0.0000 -46.1616 76.9147 -35.8805 -0.0000 0.0000 0.0000 82.7808 0.1185 18.7385 -18.2493 28.4752 -4.6675 0.0000 -0.0000 -0.1664 -13.9760 9.2401 -2.2885 7.1250 -0.0000 -0.0000 9.2785 -20.5191 5.5092
0.8157 17.9095 14.2080 -4.5330 -3.6688 -5.1917 0.0000 0.0000 0.0000 -15.2885 -13.4621 -18.1300 1.6526 8.1016 23.0232 -0.0628 5.5574 -5.5848 0.5086 -4.5716 -12.6907 0.0000 0.0000 0.0000 30.9534 0.4911 17.6153 -2.2207 -9.3113 26.7741 -0.1921 -2.1997 -9.3912 -0.0185 0.8788 -2.4155 4.1048 1.0800 12.9964 2.7966 2.3152 -0.9495 0.2064 1.0063 -8.2883 -2.5852 -1.2502 -10.3099 0.0522 -1.2343 29.4972 0.3126 -0.8371 11.2685 -0.0000 -0.0000 0.0000 -91.1052 12.5254 24.5539 21.7110 -32.6489 -6.4292 -0.0000 0.0000 -5.3924 19.9903 49.2211 15.4011 -7.1250 0.0000 -0.0000 -47.2245 77.3041 -37.1090 -0.0000 -0.0000 0.0000 82.9873 -0.1813 18.2533 -18.0190 28.1815 -4.5582 0.0000 0.0000 0.0955 -13.9480 8.9617 -2.2156 7.1250 -0.0000 -0.0000 9.3080 -20.8030 5.4668
0.8339 17.9224 14.3938 -4.1351 -3.3722 -5.3593 0.0000 0.0000 0.0000 -16.0692 -12.9539 -17.7773 1.7057 8.2242 23.3970 -0.0717 5.3378 -4.5563 0.3612 -3.8607 -10.6851 0.0000 0.0000 0.0000 30.3069 0.1887 16.7075 -2.6009 -10.0191 29.0386 -0.1223 -2.2791 -7.8560 -0.0182 0.8719 -2.3965 3.8366 1.0324 13.1808 2.6512 2.2119 -1.0076 0.2184 0.9613 -8.4621 -2.6081 -1.2824 -10.4648 0.0479 -1.2686 29.7739 0.3092 -0.8571 11.4081 0.0000 -0.0000 0.0000 -91.1187 12.6651 24.3850 21.5501 -32.4649 -6.3427 -0.0000 0.0000 -5.2488 20.0668 49.0504 15.4242 -7.1250 0.0000 -0.0000 -46.5102 77.2402 -36.4521 0.0000 -0.0000 0.0000 83.2093 -0.6183 17.7119 -17.9020 28.0314 -4.5031 0.0000 0.0000 0.4336 -14.1446 8.9006 -2.2329 7.1250 -0.0000 -0.0000 9.1694 -20.8560 5.3722
0.8515 17.9304 14.5810 -3.7172 -3.0662 -5.5879 0.0000 0.0000 0.0000 -16.8950 -12.3571 -17.4104 1.7680 8.3651 23.8286 -0.0548 4.7002 -4.0663 0.2346 -3.1175 -8.6060 0.0000 0.0000 0.0000 29.5310 -0.2949 15.7632 -3.0116 -10.7138 31.3205 -0.0492 -2.5074 -5.8727 -0.0103 0.6544 -1.7984 3.4928 0.9844 13.2636 2.5407 2.0881 -0.9971 0.3169 0.9138 -8.5073 -2.6897 -1.3381 -10.5672 -0.0040 -1.3105 30.0363 0.2976 -0.8930 11.5330 -0.0000 0.0000 0.0000 -91.1655 12.6560 24.1054 21.2463 -32.1148 -6.1804 -0.0000 0.0000 -4.8669 19.9441 48.8707 15.2868 -7.1250 0.0000 -0.0000 -45.9455 77.0886 -35.8486 -0.0000 0.0000 0.0000 83.4014 -1.0455 17.0606 -17.8032 27.9045 -4.4568 0.0000 0.0000 0.8192 -14.2996 9.1832 -2.3294 7.1250 -0.0000 -0.0000 9.0493 -20.5612 5.3609
0.8695 17.9381 14.7758 -3.5420 -3.0246 -6.0361 0.0000 0.0000 0.0000 -17.4393 -11.5203 -16.9820 1.8868 8.6262 24.6329 -0.0259 3.6998 -3.8547 0.1795 -2.7291 -7.5255 0.0000 0.0000 0.0000 29.0825 -0.5122 14.9840 -3.4785 -11.4320 33.7510 0.0130 -2.9825 -3.4157 -0.0030 -0.3558 0.9777 3.3669 0.9736 13.2387 2.5240 2.0382 -0.7280 0.3809 0.9010 -8.2054 -2.7088 -1.3452 -10.7463 -0.0899 -1.2837 30.1593 0.2711 -0.8941 11.6175 0.0000 0.0000 0.0000 -91.2539 12.3822 23.7770 20.9197 -31.7345 -6.0076 -0.0000 0.0000 -4.4846 19.7814 49.0447 15.1961 -7.1250 0.0000 -0.0000 -46.7363 77.1213 -36.5397 0.0000 0.0000 0.0000 83.5463 -1.1741 16.5164 -17.7102 27.7845 -4.4133 0.0000 0.0000 0.9267 -14.0535 8.8261 -2.1995 7.1250 -0.0000 -0.0000 9.2373 -20.9358 5.3961
0.9009 17.9499 14.9694 -2.8389 -2.6294 -6.1362 0.0000 0.0000 0.0000 -18.6454 -10.9275 -16.8279 2.0040 8.8744 25.4031 -0.0016 2.4696 -3.4156 0.1306 -2.3291 -6.4160 0.0000 0.0000 0.0000 27.7925 -0.8686 13.6523 -3.9728 -12.1242 36.1727 0.0288 -3.1298 -0.2221 -0.0592 -1.5695 4.3174 2.9370 0.8964 12.7715 2.2521 1.8143 -0.5139 0.3855 0.8124 -7.7140 -2.5346 -1.3002 -10.9246 -0.2078 -1.2173 30.1272 0.2048 -0.8585 11.6378 -0.0000 -0.0000 0.0000 -91.2550 12.0542 23.3798 20.6757 -31.4478 -5.8798 -0.0000 0.0000 -4.2090 19.7284 49.0727 15.1600 -7.1250 0.0000 -0.0000 -46.8870 77.1155 -36.6613 -0.0000 -0.0000 0.0000 83.8402 -1.0630 15.7230 -17.4762 27.4812 -4.3048 0.0000 0.0000 1.2369 -13.8399 8.5882 -2.1070 7.1250 -0.0000 -0.0000 9.3993 -21.1868 5.4392
0.9014 17.9303 15.0927 -3.6579 -2.7139 -6.4056 0.0000 0.0000 0.0000 -17.8128 -10.1772 -16.8939 2.1106 9.0928 26.0862 0.0059 1.4333 -2.6268 0.0691 -1.6958 -4.6657 0.0000 0.0000 0.0000 28.8085 -0.4631 12.3139 -4.5045 -12.8031 38.6357 0.0012 -4.9975 3.4587 -0.2200 -3.0192 8.3321 3.5042 0.8089 14.0031 2.5578 1.8901 -0.8101 0.3577 0.8153 -8.7305 -2.6095 -1.2230 -10.6721 -0.1765 -1.1055 30.2757 0.2452 -0.8139 11.6439 0.0000 0.0000 0.0000 -91.3320 12.4718 23.0128 20.5485 -31.2975 -5.8136 -0.0000 0.0000 -4.2200 19.6653 48.7459 15.0383 -7.1250 0.0000 -0.0000 -45.7360 76.9044 -35.5166 0.0000 0.0000 0.0000 84.0253 -1.5219 14.9917 -17.1393 27.0411 -4.1505 0.0000 0.0000 1.6917 -13.8711 9.0933 -2.2350 7.1250 -0.0000 -0.0000 9.3584 -20.6731 5.5250
0.9191 17.9381 15.2740 -3.3813 -2.7480 -6.8240 0.0000 0.0000 0.0000 -18.4226 -9.5669 -16.2361 2.1855 9.2421 26.5557 0.0112 0.9012 -2.5458 0.0465 -1.3910 -3.8253 0.0000 0.0000 0.0000 28.2273 -0.4005 11.2509 -5.0505 -13.4404 41.0404 -0.0767 -7.3832 6.7547 -0.7032 -5.3600 14.9382 3.2975 0.8278 14.2809 2.4814 1.8827 -0.6823 0.3897 0.8194 -8.7531 -2.6166 -1.2065 -10.6274 -0.1760 -1.0816 30.2248 0.2501 -0.8035 11.6144 0.0000 0.0000 0.0000 -91.3270 12.4866 22.8507 20.4295 -31.1564 -5.7519 -0.0000 0.0000 -4.2018 19.3875 48.9947 14.8727 -7.1250 0.0000 -0.0000 -46.8918 76.9342 -36.5083 0.0000 0.0000 0.0000 84.2556 -1.5536 14.1283 -16.6795 26.4333 -3.9436 0.0000 0.0000 2.1528 -14.0303 9.7836 -2.4315 7.1250 -0.0000 -0.0000 9.2228 -19.9646 5.5917
0.9566 17.9649 15.4530 -2.6285 -2.4769 -6.9045 0.0000 0.0000 0.0000 -19.6669 -9.4493 -15.6826 2.2476 9.3639 26.9404 0.0164 0.6671 -2.7653 0.0288 -1.0950 -3.0102 0.0000 0.0000 0.0000 26.8095 -0.4901 9.7322 -5.6272 -14.0571 43.4667 -0.2307 -8.4316 9.7020 -0.8744 -5.9619 16.6739 2.8839 0.7738 14.1054 2.2047 1.7036 -0.5774 0.3669 0.7483 -8.5428 -2.6334 -1.2016 -10.6649 -0.1666 -1.0730 30.0628 0.2577 -0.7992 11.5585 0.0000 0.0000 0.0000 -91.3073 12.4494 22.7680 20.4871 -31.2248 -5.7818 -0.0000 0.0000 -4.2350 19.1885 49.6196 14.8476 -7.1250 0.0000 -0.0000 -49.4152 77.1928 -38.8673 0.0000 0.0000 0.0000 84.4413 -1.6693 13.5741 -16.4398 26.1133 -3.8375 0.0000 0.0000 2.3668 -14.0317 10.0322 -2.4928 7.1250 -0.0000 -0.0000 9.2147 -19.7122 5.6394
